# xmcd
# 
# Track frame offsets:
#     150
#     22810
#     43276
#     65930
# 
# Disc length: 1147
# 
# Revision: 3
# Processed by: cddbd v1.5.2PL0 Copyright (c) Steve Scherf et al.
# Submitted via: fre:ac v1.0.17
# 
DISCID=34047904
DTITLE=香西かおり - 最北航路
DYEAR=2004
DGENRE=JPop
TTITLE0=happiness!!!
TTITLE1=untie
TTITLE2=HAPPINESS!!! (Instrumental)
TTITLE3=untie (Instrumental)
EXTD=YEAR: 2004
EXTT0=
EXTT1=
EXTT2=
EXTT3=
PLAYORDER=
